<?xml version="1.0" encoding="UTF-8" standalone="no"?>
<svg width="416px" height="416px" viewBox="0 0 416 416" version="1.1" xmlns="http://www.w3.org/2000/svg" xmlns:xlink="http://www.w3.org/1999/xlink">
    <title>camera</title>
    <g id="Page-1">
        <g id="camera" transform="translate(0.000000, 48.000000)" fill="#000000">
            <g id="Page-1">
                <g id="camera">
                    <g id="Group">
                        <path d="M382.4,51 L314.9,51 L274.5,10.2 C274.5,10.2 274.3,10 274.2,10 L274,9.8 C268,3.8 259.9,0 250.7,0 L166.7,0 C156.9,0 148.2,4.2 142.1,10.9 L142.1,11 L102.6,51 L33.6,51 C15,51 0,65.6 0,84.2 L0,286.3 C0,304.9 15,320 33.6,320 L382.4,320 C400.9,320 416,304.9 416,286.3 L416,84.2 C416,65.6 400.9,51 382.4,51 L382.4,51 L382.4,51 Z M208,269.5 C157.1,269.5 115.6,227.9 115.6,176.9 C115.6,125.8 157.1,84.3 208,84.3 C259,84.3 300.4,125.8 300.4,176.9 C300.4,227.9 259,269.5 208,269.5 L208,269.5 L208,269.5 Z M376.1,104.5 C368.4,104.5 362.1,98.2 362.1,90.4 C362.1,82.6 368.4,76.3 376.1,76.3 C383.8,76.3 390.1,82.6 390.1,90.4 C390.1,98.2 383.8,104.5 376.1,104.5 L376.1,104.5 L376.1,104.5 Z" id="Shape"></path>
                        <path d="M208,106.9 C169.4,106.9 138.2,138.2 138.2,176.9 C138.2,215.5 169.4,246.9 208,246.9 C246.5,246.9 277.8,215.6 277.8,176.9 C277.8,138.2 246.5,106.9 208,106.9 L208,106.9 L208,106.9 Z" id="Shape"></path>
                    </g>
                </g>
            </g>
        </g>
    </g>
</svg>