<?xml version="1.0" encoding="UTF-8" standalone="no"?>
<svg width="384px" height="384px" viewBox="0 0 384 384" version="1.1" xmlns="http://www.w3.org/2000/svg" xmlns:xlink="http://www.w3.org/1999/xlink">
    <title>cart</title>
    <g id="Page-1">
        <g id="cart" fill="#000000">
            <g id="Group">
                <path d="M96,336 C82.752,336 72,346.752 72,360 C72,373.248 82.752,384 96,384 C109.248,384 120,373.248 120,360 C120,346.752 109.248,336 96,336 L96,336 Z" id="Shape"></path>
                <path d="M320.5,336 C307.252,336 296.5,346.752 296.5,360 C296.5,373.248 307.252,384 320.5,384 C333.748,384 344.5,373.248 344.5,360 C344.5,346.752 333.748,336 320.5,336 L320.5,336 Z" id="Shape"></path>
                <path d="M384,64 L59.177,31.646 C57.549,24.674 54.808,16.986 47.339,10.979 C38.025,3.489 22.982,0 0,0 L0,16.001 C18.614,16.001 31.167,18.507 37.312,23.448 C41.77,27.033 42.956,31.871 44.477,39.437 L44.453,39.441 L86.505,273.079 C88.918,287.501 93.699,298.288 99.796,306.065 C107.043,315.312 116.533,320 128,320 L368,320 L368,304 L128,304 C123.273,304 108.864,304.123 102.251,270.245 L96.822,240.085 L368,192 L384,64 L384,64 Z" id="Shape"></path>
            </g>
        </g>
    </g>
</svg>