<?xml version="1.0" encoding="UTF-8" standalone="no"?>
<svg width="448px" height="448px" viewBox="0 0 448 448" version="1.1" xmlns="http://www.w3.org/2000/svg" xmlns:xlink="http://www.w3.org/1999/xlink">
    <title>close-circled</title>
    <g id="Page-1">
        <g id="close-circled" fill="#000000">
            <path d="M224,0 C100.3,0 0,100.3 0,224 C0,347.7 100.3,448 224,448 C347.7,448 448,347.7 448,224 C448,100.3 347.7,0 224,0 L224,0 Z M332.3,299.5 C333.8,301 334.6,303 334.6,305.1 C334.6,307.2 333.8,309.3 332.3,310.7 L310.7,332.4 C309.1,334 307.1,334.7 305.1,334.7 C303.1,334.7 301,333.9 299.5,332.4 L224,256.8 L148.6,332.5 C147.1,334.1 145,334.8 143,334.8 C141,334.8 138.9,334 137.4,332.5 L115.8,310.8 C114.3,309.3 113.5,307.3 113.5,305.2 C113.5,303.1 114.3,301 115.8,299.6 L191.5,223.6 L115.6,148.6 C112.5,145.5 112.5,140.4 115.6,137.3 L137.2,115.6 C138.7,114.1 140.7,113.3 142.8,113.3 C144.9,113.3 146.9,114.1 148.4,115.6 L224.1,190.3 L299.8,115.6 C301.3,114.1 303.3,113.3 305.4,113.3 C307.5,113.3 309.5,114.1 311,115.6 L332.6,137.3 C335.7,140.4 335.7,145.5 332.6,148.6 L256.7,223.6 L332.3,299.5 L332.3,299.5 Z" id="Shape"></path>
        </g>
    </g>
</svg>