<?xml version="1.0" encoding="UTF-8" standalone="no"?>
<svg width="385px" height="385px" viewBox="0 0 385 385" version="1.1" xmlns="http://www.w3.org/2000/svg" xmlns:xlink="http://www.w3.org/1999/xlink">
    <title>close</title>
    <g id="Page-1">
        <g id="close" fill="#000000">
            <path d="M380.6,323.1 L249.4,191.4 L380.9,61.4 C386.3,56 386.3,47.2 380.9,41.8 L343.5,4.2 C340.9,1.6 337.4,0.2 333.7,0.2 C330,0.2 326.5,1.7 323.9,4.2 L193,133.8 L61.9,4.3 C59.3,1.7 55.8,0.3 52.1,0.3 C48.4,0.3 44.9,1.8 42.3,4.3 L5,41.9 C-0.4,47.3 -0.4,56.1 5,61.5 L136.5,191.5 L5.4,323.1 C2.8,325.7 1.3,329.2 1.3,332.9 C1.3,336.6 2.7,340.1 5.4,342.7 L42.8,380.3 C45.5,383 49,384.4 52.6,384.4 C56.1,384.4 59.7,383.1 62.4,380.3 L193,249.1 L323.7,380.2 C326.4,382.9 329.9,384.3 333.5,384.3 C337,384.3 340.6,383 343.3,380.2 L380.7,342.6 C383.3,340 384.8,336.5 384.8,332.8 C384.7,329.2 383.2,325.7 380.6,323.1 L380.6,323.1 Z" id="Shape"></path>
        </g>
    </g>
</svg>