<?xml version="1.0" encoding="UTF-8" standalone="no"?>
<svg width="384px" height="384px" viewBox="0 0 384 384" version="1.1" xmlns="http://www.w3.org/2000/svg" xmlns:xlink="http://www.w3.org/1999/xlink">
    <title>cog</title>
    <g id="Page-1">
        <g id="cog" fill="#000000">
            <path d="M352.349,192.046 C352.348,171.033 365.492,153.098 384,145.984 C379.113,125.518 371.043,106.284 360.336,88.845 C353.961,91.681 347.106,93.099 340.254,93.099 C327.633,93.099 315.016,88.288 305.383,78.657 C290.52,63.794 287.135,41.811 295.203,23.687 C277.768,12.973 258.54,4.895 238.074,0 C230.971,18.529 213.027,31.69 192,31.69 C170.975,31.69 153.031,18.529 145.927,0 C125.461,4.895 106.234,12.973 88.799,23.688 C96.867,41.81 93.482,63.792 78.618,78.658 C68.987,88.289 56.368,93.101 43.747,93.101 C36.893,93.101 30.041,91.682 23.664,88.846 C12.958,106.284 4.886,125.517 0,145.984 C18.509,153.096 31.652,171.033 31.652,192.046 C31.652,213.054 18.52,230.982 0.022,238.1 C4.92,258.566 12.998,277.792 23.714,295.228 C30.075,292.407 36.912,290.996 43.746,290.996 C56.368,290.996 68.985,295.808 78.617,305.439 C93.458,320.28 96.856,342.22 88.832,360.328 C106.27,371.038 125.496,379.111 145.962,384.001 C153.09,365.522 171.008,352.405 192,352.405 C212.992,352.405 230.91,365.52 238.037,384.001 C258.505,379.111 277.73,371.037 295.169,360.326 C287.146,342.22 290.543,320.28 305.385,305.439 C315.014,295.807 327.633,290.995 340.253,290.995 C347.089,290.995 353.923,292.406 360.286,295.228 C371.002,277.792 379.08,258.566 383.978,238.1 C365.48,230.981 352.349,213.052 352.349,192.046 L352.349,192.046 Z M192.9,271.9 C148.6,271.9 112.9,236 112.9,191.9 C112.9,147.799 148.6,111.9 192.9,111.9 C237.199,111.9 272.9,147.799 272.9,191.9 C272.9,236 237.199,271.9 192.9,271.9 L192.9,271.9 Z" id="Shape"></path>
        </g>
    </g>
</svg>