<?xml version="1.0" encoding="UTF-8" standalone="no"?>
<svg width="384px" height="384px" viewBox="0 0 384 384" version="1.1" xmlns="http://www.w3.org/2000/svg" xmlns:xlink="http://www.w3.org/1999/xlink">
    <title>search</title>
    <g id="Page-1" stroke="none" stroke-width="1">
        <g id="search" fill="#000000">
            <path d="M280.5,234 C295.5,210.4 304.3,182.4 304.3,152.3 C304.3,68.2 236.2,0 152.2,0 C68.1,0 0,68.2 0,152.3 C0,236.4 68.1,304.6 152.1,304.6 C182.6,304.6 211,295.6 234.8,280.2 L241.7,275.4 L350.3,384 L384,349.7 L275.5,241.1 L280.5,234 L280.5,234 Z M237.4,67.2 C260.1,89.9 272.6,120.1 272.6,152.2 C272.6,184.3 260.1,214.5 237.4,237.2 C214.7,259.9 184.5,272.4 152.4,272.4 C120.3,272.4 90.1,259.9 67.4,237.2 C44.7,214.5 32.2,184.3 32.2,152.2 C32.2,120.1 44.7,89.9 67.4,67.2 C90.1,44.5 120.3,32 152.4,32 C184.5,32 214.7,44.5 237.4,67.2 L237.4,67.2 Z" />
        </g>
    </g>
</svg>