<?xml version="1.0" encoding="UTF-8" standalone="no"?>
<svg width="404px" height="404px" viewBox="0 0 404 404" version="1.1" xmlns="http://www.w3.org/2000/svg" xmlns:xlink="http://www.w3.org/1999/xlink">
    <title>star-outline</title>
    <g id="Page-1">
        <g id="star-outline" transform="translate(0.000000, 10.000000)" fill="#000000">
            <g id="Page-1">
                <g id="star-outline">
                    <path d="M404,146.409 L258.733,133.933 L202,0 L145.257,133.934 L0,146.409 L110.192,241.933 L77.161,384 L202,308.686 L326.83,384 L293.809,241.934 L404,146.409 L404,146.409 Z M218.531,281.286 L202,271.312 L185.47,281.285 L125.482,317.476 L141.361,249.18 L145.73,230.39 L131.153,217.753 L78.159,171.814 L147.995,165.816 L167.201,164.166 L174.722,146.416 L201.998,82.035 L229.268,146.414 L236.788,164.165 L255.996,165.815 L325.842,171.813 L272.849,217.752 L258.273,230.388 L262.64,249.176 L278.515,317.475 L218.531,281.286 L218.531,281.286 Z" id="Shape"></path>
                </g>
            </g>
        </g>
    </g>
</svg>