<?xml version="1.0" encoding="UTF-8" standalone="no"?>
<svg width="353px" height="353px" viewBox="0 0 353 353" version="1.1" xmlns="http://www.w3.org/2000/svg" xmlns:xlink="http://www.w3.org/1999/xlink">
    <title>telephone</title>
    <g id="Page-1">
        <g id="telephone" fill="#000000">
            <path d="M336.9,255.5 C322.3,240.5 280.8,212.4 253.6,212.4 C247.3,212.4 241.8,213.8 237.3,216.7 C224,225.2 213.4,231.8 208.3,231.8 C205.5,231.8 202.5,229.3 195.9,223.6 L194.8,222.6 C176.5,206.7 172.6,202.6 165.5,195.2 L163.7,193.3 C162.4,192 161.3,190.8 160.2,189.7 C154,183.3 149.5,178.7 133.6,160.7 L132.9,159.9 C125.3,151.3 120.3,145.7 120,141.6 C119.7,137.6 123.2,131.1 132.1,119 C142.9,104.4 143.3,86.4 133.4,65.5 C125.5,49 112.6,33.2 101.2,19.3 L100.2,18.1 C90.4,6.1 79,0.1 66.3,0.1 C52.2,0.1 40.5,7.7 34.3,11.7 C33.8,12 33.3,12.4 32.8,12.7 C18.9,21.5 8.8,33.6 5,45.9 C-0.7,64.4 -4.5,88.4 22.8,138.3 C46.4,181.5 67.8,210.5 101.8,245.4 C133.8,278.2 148,288.8 179.8,311.8 C215.2,337.4 249.2,352.1 273,352.1 C295.1,352.1 312.5,352.1 337.3,322.2 C363.3,290.8 352.5,271.6 336.9,255.5 L336.9,255.5 Z" id="Shape"></path>
        </g>
    </g>
</svg>