<?xml version="1.0" encoding="UTF-8" standalone="no"?>
<svg width="426px" height="426px" viewBox="0 0 426 426" version="1.1" xmlns="http://www.w3.org/2000/svg" xmlns:xlink="http://www.w3.org/1999/xlink">
    <title>time</title>
    <g id="Page-1">
        <g id="time" fill-opacity="0.9" fill="#000000">
            <g id="Icon_1_">
                <g id="Group">
                    <path d="M213,0 C94.789,0 0,95.851 0,213 C0,330.149 94.789,426 213,426 C331.211,426 426,330.149 426,213 C426,95.851 330.149,0 213,0 L213,0 Z M213,383.4 C119.282,383.4 42.6,306.717 42.6,213 C42.6,119.283 119.282,42.6 213,42.6 C306.718,42.6 383.4,119.282 383.4,213 C383.4,306.718 306.718,383.4 213,383.4 L213,383.4 Z" id="Shape"></path>
                    <path d="M223.65,106.5 L191.7,106.5 L191.7,234.3 L303.525,301.393 L319.5,274.768 L223.65,218.324 L223.65,106.5 Z" id="Shape"></path>
                </g>
            </g>
        </g>
    </g>
</svg>