<?xml version="1.0" encoding="UTF-8" standalone="no"?>
<svg width="384px" height="384px" viewBox="0 0 384 384" version="1.1" xmlns="http://www.w3.org/2000/svg" xmlns:xlink="http://www.w3.org/1999/xlink">
    <title>user</title>
    <g id="Page-1">
        <g id="user" fill="#000000">
            <path d="M384,384 C384,384 384,357.6 381.8,343.8 C380,332.9 364.9,318.5 300.7,294.9 C237.5,271.7 241.4,283 241.4,240.3 C241.4,212.6 255.5,228.7 264.5,176.1 C268,155.4 270.8,169.2 278.4,136 C282.4,118.6 275.7,117.3 276.5,109 C277.3,100.7 278.1,93.3 279.6,76.3 C281.4,55.3 261.9,0 192,0 C122.1,0 102.6,55.3 104.5,76.4 C106,93.3 106.8,100.8 107.6,109.1 C108.4,117.4 101.7,118.7 105.7,136.1 C113.3,169.2 116.1,155.4 119.6,176.2 C128.6,228.8 142.7,212.7 142.7,240.4 C142.7,283.2 146.6,271.9 83.4,295 C19.2,318.5 4,333 2.3,343.9 C0,357.6 0,384 0,384 L192,384 L384,384 L384,384 Z" id="Shape"></path>
        </g>
    </g>
</svg>