<?xml version="1.0" encoding="UTF-8" standalone="no"?>
<svg width="449px" height="449px" viewBox="0 0 449 449" version="1.1" xmlns="http://www.w3.org/2000/svg" xmlns:xlink="http://www.w3.org/1999/xlink">
    <title>users</title>
    <g id="Page-1">
        <g id="users" transform="translate(0.000000, 80.500000)" fill="#000000">
            <g id="Page-1">
                <g id="users">
                    <g id="Group">
                        <path d="M317.2,222.8 C328.5,226.7 306,218.9 317.2,222.8 L317.2,222.8 L317.2,222.8 Z" id="Shape"></path>
                        <path d="M317.2,222.8 C303.7,218.1 289.1,217.8 275.6,213.1 C271.5,211.7 263.4,210 261.7,205.3 C260.1,200.7 260.1,195.3 259.8,190.5 C259.6,186.7 259.5,182.9 259.5,179.1 C259.5,176.6 265.9,171.3 267.3,169 C272.7,160 273.2,147.9 274.2,137.7 C282.9,140.1 284,124 285.5,119.1 C286.6,115.7 293.3,92.3 282.9,95.5 C285.4,91.1 286.4,85.7 287.1,80.8 C289.1,68 289.9,54 286,41.5 C277.9,15.5 253,0.9 226.7,0.1 C200,-0.8 173.2,12 163.2,37.9 C158.4,50.5 158.8,64.2 160.4,77.4 C161.1,83.4 162.1,90.1 165.1,95.5 C155.4,92.6 160.6,113.2 161.7,116.8 C163.3,121.9 164.7,140.2 173.8,137.7 C174.6,145.8 175.5,154.1 177.7,162 C179.2,167.3 182.3,171.8 185.9,175.9 C187.7,177.9 188.6,178.1 188.5,180.7 C188.4,188.5 188.6,196.9 186.6,204.5 C184.6,212.1 167.9,215.3 161.2,216.7 C143.2,220.4 126.6,222.1 111.6,233.3 C94.1,246.2 85,266.3 85,288 L334.9,288 L363,288 C363,258.5 345.2,232.5 317.2,222.8 L317.2,222.8 L317.2,222.8 Z" id="Shape"></path>
                        <path d="M111.3,210.5 C111.9,210.2 112.5,209.9 112.9,209.7 C112.6,209.8 112.3,210 112.1,210.1 C111.8,210.2 111.6,210.3 111.3,210.5 L111.3,210.5 L111.3,210.5 Z" id="Shape"></path>
                        <path d="M111.3,210.5 C107.9,212.2 103.8,214.3 112.1,210.1 C115.1,208.6 114.5,208.9 112.9,209.7 C119.7,206.5 127,205.7 134.3,205 C137.1,204.7 138.4,202.8 136.3,200.1 C132.3,195 118.5,194 112.7,191.7 C109.1,190.3 108.1,189 107.8,185 C107.7,183.2 106.7,175.2 108.1,173.9 C109.1,172.9 115.4,173.3 116.8,173.1 C122.5,172.4 128.3,171.2 133.7,169.1 C136,168.2 138.2,167.1 140.2,165.7 C142.6,163.9 138.4,159.5 137.3,157.1 C133.9,149.6 132.4,141.4 131.9,133.2 C130.9,117.1 133.4,100.9 130.4,84.9 C125.9,60.4 107,48.1 82.9,48.1 C68,48.1 53.3,53.2 45,66.2 C35.8,80.5 36.3,98.3 36.8,114.6 C37.1,123.9 37.5,133.3 36.2,142.6 C35.6,146.6 34.7,150.5 33.3,154.3 C32.2,157.2 26.6,164.4 28.8,165.9 C37.1,171.8 51.1,173.8 61.1,173 C61.4,177.9 62.3,184.2 60.5,188.8 C57.7,196 36.8,197.9 30.5,200 C13,205.8 0,220 0,240 L54.8,240 L79.5,240 C80.8,240 85.8,230.7 87.2,229.2 C94,221.7 102.3,215.2 111.3,210.5 L111.3,210.5 L111.3,210.5 Z" id="Shape"></path>
                        <path d="M417.3,199.9 C409.2,197.3 393.6,196.5 387.8,189.5 C384.9,186 386.5,177.1 386.8,172.9 C391.2,173.3 396,172.6 400.5,172 C404.6,171.4 408.6,170.6 412.5,169.2 C414.3,168.5 416.1,167.8 417.8,166.8 C421.7,164.5 419.9,164.1 417.9,160.7 C407,142.4 411.9,119.2 411.4,99.1 C411,82.4 406.6,64.1 391.4,54.7 C377.7,46.2 357.4,45.9 342.7,51.9 C300.3,68.9 325.3,125.1 310.8,157.3 C308.3,162.7 304.7,164.6 311,167.8 C314.5,169.6 318.3,170.8 322.1,171.7 C327.9,173.1 333.9,173.9 339.9,174.1 C340.9,174.1 340.2,186.7 339.9,188 C338.8,192.9 328.1,194.3 324.1,195.4 C320,196.5 313.2,196.8 311.2,201.1 C308.2,207.5 321.1,205.9 324.3,206.5 C334.6,208.4 343.7,214.1 351.7,220.6 C357.7,225.5 365.8,232.1 368,240.1 L448.2,240.1 C448,220 434.9,205.7 417.3,199.9 L417.3,199.9 L417.3,199.9 Z" id="Shape"></path>
                    </g>
                </g>
            </g>
        </g>
    </g>
</svg>