<?xml version="1.0" encoding="UTF-8" standalone="no"?>
<svg width="87px" height="77px" viewBox="0 0 87 77" version="1.1" xmlns="http://www.w3.org/2000/svg" xmlns:xlink="http://www.w3.org/1999/xlink">
    <title>elemental-logo-paths</title>
    <defs>
        <path id="path-1" d="M24.308,10.524 L24.308,7.5 L12.5,7.5 L12.5,24.588 L24.524,24.588 L24.524,21.564 L16.028,21.564 L16.028,17.388 L23.756,17.388 L23.756,14.388 L16.028,14.388 L16.028,10.524 L24.308,10.524 Z"></path>
    </defs>
    <g id="Page-1">
        <g id="Logo---Colour">
            <path d="M66.8741283,51.8562732 C78.2418971,48.9930722 85.7403846,44.0801295 85.7403846,38.5 C85.7403846,32.9198705 78.2418971,28.0069278 66.8741283,25.1437268 C70.0784079,13.8673498 69.5729186,4.91699782 64.7403846,2.12693304 C59.9078507,-0.663131733 51.9038738,3.37427763 43.7403846,11.7874537 C35.5768955,3.37427763 27.5729186,-0.663131733 22.7403846,2.12693304 C17.9078507,4.91699782 17.4023613,13.8673498 20.6066409,25.1437268 C9.23887215,28.0069278 1.74038462,32.9198705 1.74038462,38.5 C1.74038462,44.0801295 9.23887215,48.9930722 20.6066409,51.8562732 C17.4023613,63.1326502 17.9078507,72.0830022 22.7403846,74.873067 C27.5729186,77.6631317 35.5768955,73.6257224 43.7403846,65.2125463 C51.9038738,73.6257224 59.9078507,77.6631317 64.7403846,74.873067 C69.5729186,72.0830022 70.0784079,63.1326502 66.8741283,51.8562732 Z M34.7165116,54.1298065 C29.6021478,53.7032435 24.8365339,52.9216567 20.6066409,51.8562732 C21.7989382,47.6603866 23.5048711,43.1424505 25.6926387,38.5 C26.9360552,41.1385343 28.3351145,43.8172894 29.8839782,46.5 C31.4328419,49.1827106 33.0531822,51.733709 34.7165116,54.1298065 Z M52.7642576,22.8701935 C57.8786215,23.2967565 62.6442354,24.0783433 66.8741283,25.1437268 C65.6818311,29.3396134 63.9758981,33.8575495 61.7881306,38.5 C60.5447141,35.8614657 59.1456548,33.1827106 57.5967911,30.5 C56.0479274,27.8172894 54.4275871,25.266291 52.7642576,22.8701935 Z M66.8741283,51.8562732 C62.6442354,52.9216567 57.8786215,53.7032435 52.7642576,54.1298065 L52.7642576,54.1298065 C49.8376613,58.345694 46.7779803,62.0820433 43.7403846,65.2125463 C40.7027889,62.0820433 37.643108,58.345694 34.7165116,54.1298065 C37.6232576,54.3722433 40.6426572,54.5 43.7403846,54.5 C46.838112,54.5 49.8575116,54.3722433 52.7642576,54.1298065 L52.7642576,54.1298065 C54.4275871,51.733709 56.0479274,49.1827106 57.5967911,46.5 C59.1456548,43.8172894 60.5447141,41.1385343 61.7881306,38.5 C63.9758981,43.1424505 65.6818311,47.6603866 66.8741283,51.8562732 Z M43.7403846,11.7874537 C40.7027889,14.9179567 37.643108,18.654306 34.7165116,22.8701935 C29.6021478,23.2967565 24.8365339,24.0783433 20.6066409,25.1437268 C21.7989382,29.3396134 23.5048711,33.8575495 25.6926387,38.5 C26.9360552,35.8614657 28.3351145,33.1827106 29.8839782,30.5 C31.4328419,27.8172894 33.0531822,25.266291 34.7165116,22.8701935 C37.6232576,22.6277567 40.6426572,22.5 43.7403846,22.5 C46.838112,22.5 49.8575116,22.6277567 52.7642576,22.8701935 C49.8376613,18.654306 46.7779803,14.9179567 43.7403846,11.7874537 Z" id="Paths" stroke="#31ADB8" stroke-width="3" opacity="0.1"></path>
            <g id="Logo---Fill" transform="translate(25.240385, 22.500000)">
                <path d="M9.47612702,31.6298065 C12.382873,31.8722433 15.4022726,32 18.5,32 C21.5977274,32 24.617127,31.8722433 27.523873,31.6298065 L27.523873,31.6298065 C29.1872024,29.233709 30.8075428,26.6827106 32.3564065,24 C33.9052702,21.3172894 35.3043294,18.6385343 36.547746,16 C35.3043294,13.3614657 33.9052702,10.6827106 32.3564065,8 C30.8075428,5.31728937 29.1872024,2.76629096 27.523873,0.37019352 C24.617127,0.12775667 21.5977274,3.55271368e-15 18.5,3.55271368e-15 C15.4022726,3.55271368e-15 12.382873,0.12775667 9.47612702,0.37019352 C7.81279756,2.76629096 6.19245724,5.31728937 4.64359354,8 C3.09472984,10.6827106 1.69567056,13.3614657 0.452254043,16 C1.69567056,18.6385343 3.09472984,21.3172894 4.64359354,24 C6.19245724,26.6827106 7.81279756,29.233709 9.47612702,31.6298065 Z" id="Hexagon" stroke="#31ADB8" stroke-width="3" fill="#31ADB8"></path>
                <g id="E---Outline">
                    <use fill="none" xlink:href="#path-1"></use>
                    <use fill="#FFFFFF" fill-rule="evenodd" xlink:href="#path-1"></use>
                </g>
            </g>
        </g>
    </g>
</svg>