<?xml version="1.0" encoding="UTF-8" standalone="no"?>
<svg width="172px" height="172px" viewBox="0 0 172 172" version="1.1" xmlns="http://www.w3.org/2000/svg" xmlns:xlink="http://www.w3.org/1999/xlink" xmlns:sketch="http://www.bohemiancoding.com/sketch/ns">
    <!-- Generator: Sketch 3.3 (11970) - http://www.bohemiancoding.com/sketch -->
    <title>logo</title>
    <desc>Created with Sketch.</desc>
    <defs>
        <path id="path-1" d="M48.616,21.048 L48.616,15 L25,15 L25,49.176 L49.048,49.176 L49.048,43.128 L32.056,43.128 L32.056,34.776 L47.512,34.776 L47.512,28.776 L32.056,28.776 L32.056,21.048 L48.616,21.048 Z"></path>
    </defs>
    <g id="Page-1" stroke="none" stroke-width="1" fill="none" fill-rule="evenodd" sketch:type="MSPage">
        <g id="Logo---Colour" sketch:type="MSLayerGroup">
            <path d="M132.267487,112.712546 C155.003025,106.986144 170,97.1602591 170,86 C170,74.8397409 155.003025,65.0138556 132.267487,59.2874537 C138.676047,36.7346997 137.665068,18.8339956 128,13.2538661 C118.334932,7.67373653 102.326978,15.7485553 86,32.5749073 C69.6730217,15.7485553 53.6650679,7.67373653 44,13.2538661 C34.3349321,18.8339956 33.3239534,36.7346997 39.7325125,59.2874537 C16.9969751,65.0138556 2,74.8397409 2,86 C2,97.1602591 16.9969751,106.986144 39.7325125,112.712546 C33.3239534,135.2653 34.3349321,153.166004 44,158.746134 C53.6650679,164.326263 69.6730217,156.251445 86,139.425093 C102.326978,156.251445 118.334932,164.326263 128,158.746134 C137.665068,153.166004 138.676047,135.2653 132.267487,112.712546 Z M67.952254,117.259613 C57.7235263,116.406487 48.1922985,114.843313 39.7325125,112.712546 C42.1171071,104.320773 45.528973,95.2849011 49.9045081,86 C52.3913411,91.2770686 55.1894597,96.6345787 58.2871871,102 C61.3849145,107.365421 64.6255951,112.467418 67.952254,117.259613 Z M104.047746,54.740387 C114.276474,55.593513 123.807701,57.1566866 132.267487,59.2874537 C129.882893,67.6792268 126.471027,76.7150989 122.095492,86 C119.608659,80.7229314 116.81054,75.3654213 113.712813,70 C110.615086,64.6345787 107.374405,59.5325819 104.047746,54.740387 Z M132.267487,112.712546 C123.807701,114.843313 114.276474,116.406487 104.047746,117.259613 L104.047746,117.259613 C98.1945533,125.691388 92.0751914,133.164087 86,139.425093 C79.9248086,133.164087 73.8054467,125.691388 67.952254,117.259613 C73.765746,117.744487 79.8045452,118 86,118 C92.1954548,118 98.234254,117.744487 104.047746,117.259613 L104.047746,117.259613 C107.374405,112.467418 110.615086,107.365421 113.712813,102 C116.81054,96.6345787 119.608659,91.2770686 122.095492,86 C126.471027,95.2849011 129.882893,104.320773 132.267487,112.712546 Z M86,32.5749073 C79.9248086,38.8359134 73.8054467,46.308612 67.952254,54.740387 C57.7235263,55.593513 48.1922985,57.1566866 39.7325125,59.2874537 C42.1171071,67.6792268 45.528973,76.7150989 49.9045081,86 C52.3913411,80.7229314 55.1894597,75.3654213 58.2871871,70 C61.3849145,64.6345787 64.6255951,59.5325819 67.952254,54.740387 C73.765746,54.2555133 79.8045452,54 86,54 C92.1954548,54 98.234254,54.2555133 104.047746,54.740387 C98.1945533,46.308612 92.0751914,38.8359134 86,32.5749073 Z" id="Paths" stroke="#31ADB8" stroke-width="4" opacity="0.1" sketch:type="MSShapeGroup"></path>
            <g id="Logo---Outline" transform="translate(49.000000, 54.000000)">
                <path d="M18.952254,63.259613 C24.765746,63.7444867 30.8045452,64 37,64 C43.1954548,64 49.234254,63.7444867 55.047746,63.259613 L55.047746,63.259613 C58.3744049,58.4674181 61.6150855,53.3654213 64.7128129,48 C67.8105403,42.6345787 70.6086589,37.2770686 73.0954919,32 C70.6086589,26.7229314 67.8105403,21.3654213 64.7128129,16 C61.6150855,10.6345787 58.3744049,5.53258192 55.047746,0.740387041 C49.234254,0.25551334 43.1954548,0 37,0 C30.8045452,0 24.765746,0.25551334 18.952254,0.740387041 C15.6255951,5.53258192 12.3849145,10.6345787 9.28718708,16 C6.18945967,21.3654213 3.39134113,26.7229314 0.904508086,32 C3.39134113,37.2770686 6.18945967,42.6345787 9.28718708,48 C12.3849145,53.3654213 15.6255951,58.4674181 18.952254,63.259613 Z" id="Hexagon" stroke="#31ADB8" stroke-width="4" sketch:type="MSShapeGroup"></path>
                <g id="E---Outline">
                    <use fill="none" sketch:type="MSShapeGroup" xlink:href="#path-1"></use>
                    <use fill="#31ADB8" fill-rule="evenodd" xlink:href="#path-1"></use>
                </g>
            </g>
        </g>
    </g>
</svg>