<?xml version="1.0" encoding="UTF-8" standalone="no"?>
<svg width="78px" height="68px" viewBox="0 0 78 68" version="1.1" xmlns="http://www.w3.org/2000/svg" xmlns:xlink="http://www.w3.org/1999/xlink" xmlns:sketch="http://www.bohemiancoding.com/sketch/ns">
    <!-- Generator: Sketch 3.3 (11970) - http://www.bohemiancoding.com/sketch -->
    <title>elemental-logo-fill</title>
    <desc>Created with Sketch.</desc>
    <defs>
        <path id="path-1" d="M48.616,21.048 L48.616,15 L25,15 L25,49.176 L49.048,49.176 L49.048,43.128 L32.056,43.128 L32.056,34.776 L47.512,34.776 L47.512,28.776 L32.056,28.776 L32.056,21.048 L48.616,21.048 Z"></path>
    </defs>
    <g id="Page-1" stroke="none" stroke-width="1" fill="none" fill-rule="evenodd" sketch:type="MSPage">
        <g id="Logo---Colour" sketch:type="MSLayerGroup" transform="translate(-45.000000, -41.000000)">
            <g id="Logo---Fill" transform="translate(47.000000, 43.000000)">
                <path d="M18.952254,63.259613 C24.765746,63.7444867 30.8045452,64 37,64 C43.1954548,64 49.234254,63.7444867 55.047746,63.259613 L55.047746,63.259613 C58.3744049,58.4674181 61.6150855,53.3654213 64.7128129,48 C67.8105403,42.6345787 70.6086589,37.2770686 73.0954919,32 C70.6086589,26.7229314 67.8105403,21.3654213 64.7128129,16 C61.6150855,10.6345787 58.3744049,5.53258192 55.047746,0.740387041 C49.234254,0.25551334 43.1954548,0 37,0 C30.8045452,0 24.765746,0.25551334 18.952254,0.740387041 C15.6255951,5.53258192 12.3849145,10.6345787 9.28718708,16 C6.18945967,21.3654213 3.39134113,26.7229314 0.904508086,32 C3.39134113,37.2770686 6.18945967,42.6345787 9.28718708,48 C12.3849145,53.3654213 15.6255951,58.4674181 18.952254,63.259613 Z" id="Hexagon" stroke="#31ADB8" stroke-width="4" fill="#31ADB8" sketch:type="MSShapeGroup"></path>
                <g id="E---Outline">
                    <use fill="none" sketch:type="MSShapeGroup" xlink:href="#path-1"></use>
                    <use fill="#FFFFFF" fill-rule="evenodd" xlink:href="#path-1"></use>
                </g>
            </g>
        </g>
    </g>
</svg>