<?xml version="1.0" encoding="UTF-8" standalone="no"?>
<svg width="172px" height="154px" viewBox="0 0 172 154" version="1.1" xmlns="http://www.w3.org/2000/svg" xmlns:xlink="http://www.w3.org/1999/xlink" xmlns:sketch="http://www.bohemiancoding.com/sketch/ns">
    <!-- Generator: Sketch 3.3 (11970) - http://www.bohemiancoding.com/sketch -->
    <title>hero-bg</title>
    <desc>Created with Sketch.</desc>
    <defs></defs>
    <g id="Page-1" stroke="none" stroke-width="1" fill="none" fill-rule="evenodd" sketch:type="MSPage">
        <g id="Logo---White" sketch:type="MSLayerGroup" transform="translate(-4.000000, -13.000000)" stroke="#FFFFFF" stroke-width="4" opacity="0.1">
            <path d="M136.267487,116.712546 C159.003025,110.986144 174,101.160259 174,90 C174,78.8397409 159.003025,69.0138556 136.267487,63.2874537 C142.676047,40.7346997 141.665068,22.8339956 132,17.2538661 C122.334932,11.6737365 106.326978,19.7485553 90,36.5749073 C73.6730217,19.7485553 57.6650679,11.6737365 48,17.2538661 C38.3349321,22.8339956 37.3239534,40.7346997 43.7325125,63.2874537 C20.9969751,69.0138556 6,78.8397409 6,90 C6,101.160259 20.9969751,110.986144 43.7325125,116.712546 C37.3239534,139.2653 38.3349321,157.166004 48,162.746134 C57.6650679,168.326263 73.6730217,160.251445 90,143.425093 C106.326978,160.251445 122.334932,168.326263 132,162.746134 C141.665068,157.166004 142.676047,139.2653 136.267487,116.712546 Z M71.952254,121.259613 C61.7235263,120.406487 52.1922985,118.843313 43.7325125,116.712546 C46.1171071,108.320773 49.528973,99.2849011 53.9045081,90 C56.3913411,95.2770686 59.1894597,100.634579 62.2871871,106 C65.3849145,111.365421 68.6255951,116.467418 71.952254,121.259613 Z M108.047746,58.740387 C118.276474,59.593513 127.807701,61.1566866 136.267487,63.2874537 C133.882893,71.6792268 130.471027,80.7150989 126.095492,90 C123.608659,84.7229314 120.81054,79.3654213 117.712813,74 C114.615086,68.6345787 111.374405,63.5325819 108.047746,58.740387 Z M136.267487,116.712546 C127.807701,118.843313 118.276474,120.406487 108.047746,121.259613 L108.047746,121.259613 C102.194553,129.691388 96.0751914,137.164087 90,143.425093 C83.9248086,137.164087 77.8054467,129.691388 71.952254,121.259613 C77.765746,121.744487 83.8045452,122 90,122 C96.1954548,122 102.234254,121.744487 108.047746,121.259613 L108.047746,121.259613 C111.374405,116.467418 114.615086,111.365421 117.712813,106 C120.81054,100.634579 123.608659,95.2770686 126.095492,90 C130.471027,99.2849011 133.882893,108.320773 136.267487,116.712546 Z M90,36.5749073 C83.9248086,42.8359134 77.8054467,50.308612 71.952254,58.740387 C61.7235263,59.593513 52.1922985,61.1566866 43.7325125,63.2874537 C46.1171071,71.6792268 49.528973,80.7150989 53.9045081,90 C56.3913411,84.7229314 59.1894597,79.3654213 62.2871871,74 C65.3849145,68.6345787 68.6255951,63.5325819 71.952254,58.740387 C77.765746,58.2555133 83.8045452,58 90,58 C96.1954548,58 102.234254,58.2555133 108.047746,58.740387 C102.194553,50.308612 96.0751914,42.8359134 90,36.5749073 Z" id="Paths" sketch:type="MSShapeGroup"></path>
        </g>
    </g>
</svg>